<svg xmlns="http://www.w3.org/2000/svg" viewBox="0 0 64 64" width="64" height="64">
  <rect width="64" height="64" rx="14" fill="#ffffff"/>
  <!-- E -->
  <line x1="9" y1="10" x2="9"  y2="54" stroke="#0b1220" stroke-width="2.8"/>
  <line x1="9" y1="10" x2="22" y2="10" stroke="#0b1220" stroke-width="2.5"/>
  <line x1="9" y1="32" x2="19" y2="32" stroke="#0b1220" stroke-width="2.2"/>
  <line x1="9" y1="54" x2="22" y2="54" stroke="#0b1220" stroke-width="2.5"/>
  <line x1="9"  y1="10" x2="19" y2="32" stroke="#0b1220" stroke-width="0.8" stroke-opacity="0.18"/>
  <line x1="22" y1="10" x2="9"  y2="32" stroke="#0b1220" stroke-width="0.8" stroke-opacity="0.18"/>
  <!-- K -->
  <line x1="36" y1="10" x2="36" y2="54" stroke="#0b1220" stroke-width="2.8"/>
  <line x1="36" y1="32" x2="56" y2="10" stroke="#0b1220" stroke-width="2.5"/>
  <line x1="36" y1="32" x2="56" y2="54" stroke="#0b1220" stroke-width="2.5"/>
  <!-- synaptic bridges -->
  <line x1="22" y1="10" x2="36" y2="10" stroke="#2563eb" stroke-width="1.2" stroke-opacity="0.5" stroke-dasharray="2.5 2"/>
  <line x1="19" y1="32" x2="36" y2="32" stroke="#2563eb" stroke-width="1.8" stroke-opacity="0.7" stroke-dasharray="2.5 2"/>
  <line x1="22" y1="54" x2="36" y2="54" stroke="#2563eb" stroke-width="1.2" stroke-opacity="0.5" stroke-dasharray="2.5 2"/>
  <!-- E nodes -->
  <circle cx="9"  cy="10" r="4"   fill="#ffffff" stroke="#0b1220" stroke-width="2"/>
  <circle cx="9"  cy="32" r="5"   fill="#ffffff" stroke="#0b1220" stroke-width="2.2"/>
  <circle cx="9"  cy="32" r="2.2" fill="#2563eb"/>
  <circle cx="9"  cy="54" r="4"   fill="#ffffff" stroke="#0b1220" stroke-width="2"/>
  <circle cx="22" cy="10" r="2.8" fill="#2563eb"/>
  <circle cx="19" cy="32" r="2.5" fill="#2563eb" fill-opacity="0.7"/>
  <circle cx="22" cy="54" r="2.8" fill="#2563eb"/>
  <!-- K nodes -->
  <circle cx="36" cy="10" r="3.5" fill="#ffffff" stroke="#0b1220" stroke-width="1.8"/>
  <circle cx="36" cy="32" r="5"   fill="#ffffff" stroke="#0b1220" stroke-width="2.2"/>
  <circle cx="36" cy="32" r="2.2" fill="#0b1220"/>
  <circle cx="36" cy="54" r="3.5" fill="#ffffff" stroke="#0b1220" stroke-width="1.8"/>
  <circle cx="56" cy="10" r="4"   fill="#ffffff" stroke="#2563eb" stroke-width="2"/>
  <circle cx="56" cy="10" r="1.8" fill="#2563eb"/>
  <circle cx="56" cy="54" r="4"   fill="#ffffff" stroke="#2563eb" stroke-width="2"/>
  <circle cx="56" cy="54" r="1.8" fill="#2563eb"/>
</svg>
