<svg xmlns="http://www.w3.org/2000/svg" viewBox="0 0 64 64" width="64" height="64">
  <defs>
    <radialGradient id="bg" cx="50%" cy="50%" r="65%">
      <stop offset="0%" stop-color="#0e1d38"/>
      <stop offset="100%" stop-color="#060b14"/>
    </radialGradient>
  </defs>
  <rect width="64" height="64" rx="14" fill="url(#bg)"/>

  <!-- E — connections -->
  <line x1="9" y1="10" x2="9" y2="54" stroke="#7dd3fc" stroke-width="1.5" stroke-opacity="0.55"/>
  <line x1="9" y1="10" x2="22" y2="10" stroke="#7dd3fc" stroke-width="1.3" stroke-opacity="0.75"/>
  <line x1="9" y1="32" x2="19" y2="32" stroke="#7dd3fc" stroke-width="1.1" stroke-opacity="0.55"/>
  <line x1="9" y1="54" x2="22" y2="54" stroke="#7dd3fc" stroke-width="1.3" stroke-opacity="0.75"/>
  <line x1="9" y1="10" x2="19" y2="32" stroke="#7dd3fc" stroke-width="0.6" stroke-opacity="0.2"/>
  <line x1="22" y1="10" x2="9" y2="32" stroke="#7dd3fc" stroke-width="0.6" stroke-opacity="0.2"/>

  <!-- K — connections -->
  <line x1="35" y1="10" x2="35" y2="54" stroke="#ffffff" stroke-width="1.5" stroke-opacity="0.6"/>
  <line x1="35" y1="32" x2="55" y2="10" stroke="#ffffff" stroke-width="1.4" stroke-opacity="0.8"/>
  <line x1="35" y1="32" x2="55" y2="54" stroke="#ffffff" stroke-width="1.4" stroke-opacity="0.8"/>
  <line x1="35" y1="10" x2="55" y2="10" stroke="#ffffff" stroke-width="0.5" stroke-opacity="0.15"/>
  <line x1="35" y1="54" x2="55" y2="54" stroke="#ffffff" stroke-width="0.5" stroke-opacity="0.15"/>

  <!-- Inter-letter synaptic bridges -->
  <line x1="22" y1="10" x2="35" y2="10" stroke="#7dd3fc" stroke-width="0.8" stroke-opacity="0.4" stroke-dasharray="2 2"/>
  <line x1="19" y1="32" x2="35" y2="32" stroke="#7dd3fc" stroke-width="1.2" stroke-opacity="0.6" stroke-dasharray="2 2"/>
  <line x1="22" y1="54" x2="35" y2="54" stroke="#7dd3fc" stroke-width="0.8" stroke-opacity="0.4" stroke-dasharray="2 2"/>

  <!-- E — nodes -->
  <circle cx="9"  cy="10" r="3.2" fill="#060b14" stroke="#7dd3fc" stroke-width="1.3"/>
  <circle cx="9"  cy="32" r="4.0" fill="#060b14" stroke="#7dd3fc" stroke-width="1.7"/>
  <circle cx="9"  cy="32" r="1.8" fill="#7dd3fc"/>
  <circle cx="9"  cy="54" r="3.2" fill="#060b14" stroke="#7dd3fc" stroke-width="1.3"/>
  <circle cx="22" cy="10" r="2.2" fill="#7dd3fc" fill-opacity="0.7"/>
  <circle cx="19" cy="32" r="2.0" fill="#7dd3fc" fill-opacity="0.55"/>
  <circle cx="22" cy="54" r="2.2" fill="#7dd3fc" fill-opacity="0.7"/>

  <!-- K — nodes -->
  <circle cx="35" cy="10" r="2.8" fill="#060b14" stroke="#aacfee" stroke-width="1.1"/>
  <circle cx="35" cy="32" r="4.0" fill="#060b14" stroke="#ffffff" stroke-width="1.7"/>
  <circle cx="35" cy="32" r="1.8" fill="#ffffff"/>
  <circle cx="35" cy="54" r="2.8" fill="#060b14" stroke="#aacfee" stroke-width="1.1"/>
  <circle cx="55" cy="10" r="3.5" fill="#060b14" stroke="#7dd3fc" stroke-width="1.5"/>
  <circle cx="55" cy="10" r="1.5" fill="#7dd3fc"/>
  <circle cx="55" cy="54" r="3.5" fill="#060b14" stroke="#7dd3fc" stroke-width="1.5"/>
  <circle cx="55" cy="54" r="1.5" fill="#7dd3fc"/>
</svg>
